<svg xmlns="http://www.w3.org/2000/svg" viewBox="0 0 128 128">
  <!-- 缩小图标，增加留白 -->
  <g transform="translate(24, 49) scale(0.75)">
    <!-- < 左尖括号 -->
    <path d="M0,25 L24,0 L32,7 L12,25 L32,43 L24,50 Z" fill="#0050b2"/>

    <!-- # 井号 -->
    <path d="M49,6 L53,6 L51,17 L61,17 L63,6 L67,6 L65,17 L75,17 L75,23 L64,23 L62,33 L73,33 L73,39 L61,39 L59,50 L55,50 L57,39 L47,39 L45,50 L41,50 L43,39 L33,39 L33,33 L44,33 L46,23 L35,23 L35,17 L47,17 Z M51,23 L49,33 L59,33 L61,23 Z" fill="#0050b2"/>

    <!-- > 右尖括号 -->
    <path d="M108,25 L84,0 L76,7 L96,25 L76,43 L84,50 Z" fill="#0050b2"/>
  </g>
</svg>
